<?xml version="1.0" encoding="UTF-8"?>
<svg width="1023px" height="349px" viewBox="0 0 1023 349" version="1.1" xmlns="http://www.w3.org/2000/svg" xmlns:xlink="http://www.w3.org/1999/xlink">
    <!-- Generator: Sketch 52.2 (67145) - http://www.bohemiancoding.com/sketch -->
    <title>Group 34</title>
    <desc>Created with Sketch.</desc>
    <defs>
        <polygon id="path-1" points="0.1387 0.401727559 145.1787 0.401727559 145.1787 244 0.1387 244"></polygon>
        <polygon id="path-3" points="0.000103708941 0 123.382297 0 123.382297 244.499487 0.000103708941 244.499487"></polygon>
        <polygon id="path-5" points="0.955441998 0.41580868 136.138 0.41580868 136.138 138.183313 0.955441998 138.183313"></polygon>
    </defs>
    <g id="Page-1" stroke="none" stroke-width="1" fill="none" fill-rule="evenodd">
        <g id="iPhone-8" transform="translate(-1.000000, -3.000000)">
            <g id="Group-34" transform="translate(1.000000, 3.000000)">
                <g id="Group-36">
                    <g id="Group-3" transform="translate(662.000000, 105.000000)">
                        <mask id="mask-2" fill="white">
                            <use xlink:href="#path-1"></use>
                        </mask>
                        <g id="Clip-2"></g>
                        <path d="M145.1787,86.7846 C143.1667,75.1966 141.1297,63.6126 139.1567,52.0176 C138.4607,47.9346 139.4097,43.7176 138.2407,39.6646 C132.0187,56.9726 123.8237,73.0726 110.2727,86.3166 C109.7747,85.4476 109.3697,85.0536 109.3277,84.6236 C107.0507,61.2876 102.7047,38.1376 103.0557,14.5616 C103.1457,8.4696 100.3187,3.9006 94.6657,1.5786 C89.2717,-0.6374 84.0947,0.2376 80.0037,4.5306 C78.2007,6.4226 76.9777,6.5566 74.5727,5.5346 C60.9767,-0.2414 47.0807,-1.4074 33.4687,5.1296 C18.9457,12.1046 10.7447,24.7326 5.2217,39.2716 C3.2227,44.5316 1.7907,50.0086 0.1487,55.5186 C0.2597,67.1756 1.6397,79.6236 0.1387,92.0006 C0.5137,93.3166 0.7957,95.6226 1.1767,96.9376 C5.2027,110.8736 13.1287,121.7476 27.2627,126.2766 C45.7147,132.1876 62.7267,128.8326 77.6297,116.0156 C79.9187,114.0476 81.6047,111.2596 84.7637,110.0716 C84.8017,113.6386 84.8087,113.6456 82.2467,116.2606 C69.2977,129.4716 56.8027,143.0656 46.7707,158.7076 C36.9817,173.9696 29.8497,190.1446 31.2487,208.8056 C32.2217,221.7646 36.2717,233.2426 48.5347,240.1516 C51.8937,242.0446 55.8077,242.1696 59.1387,244.0006 L69.1387,244.0006 C70.6527,242.2076 72.8667,243.0486 74.7247,242.6016 C91.0527,238.6816 101.0957,228.0036 107.1657,212.9156 C113.1077,198.1466 114.2157,182.5456 114.8937,166.9206 C115.4497,154.1156 115.2727,141.2826 113.9337,128.5256 C113.4837,124.2416 114.9437,121.4436 117.8367,118.4706 C127.5757,108.4646 137.1417,98.2736 145.1787,86.7846" id="Fill-1" fill="#4D4C4D" mask="url(#mask-2)"></path>
                    </g>
                    <path d="M719.4258,202.1566 C713.4588,207.3356 706.0018,207.6586 698.6308,205.6366 C693.5348,204.2406 690.4678,200.2696 689.4338,195.3176 C685.5708,176.8296 688.2698,159.2486 698.1538,143.0926 C701.8518,137.0466 707.4658,133.1866 714.3408,133.0446 C724.7018,133.2576 732.0058,138.2756 738.2168,145.0656 C740.3048,147.3486 739.2548,150.8356 739.7488,153.7496 C743.2038,174.1246 734.0758,189.4406 719.4258,202.1566" id="Fill-4" fill="#4D4C4D"></path>
                    <path d="M745.125,304.5775 C741.81,315.7905 736.073,321.0245 727.311,321.2505 C723.524,321.3485 721.6,320.0115 720.838,316.0815 C719.25,307.8895 720.671,300.1465 723.818,292.7015 C729.717,278.7495 739.028,267.0945 750.041,254.8195 C749.848,272.5155 749.8,288.7695 745.125,304.5775" id="Fill-6" fill="#4D4C4D"></path>
                    <path d="M738.2168,145.0658 C732.0058,138.2748 724.7018,133.2578 714.3408,133.0448 C707.4658,133.1868 701.8518,137.0468 698.1538,143.0918 C688.2698,159.2488 685.5708,176.8298 689.4338,195.3178 C690.4678,200.2698 693.5348,204.2408 698.6308,205.6368 C706.0018,207.6588 713.4588,207.3358 719.4258,202.1568 C734.0758,189.4408 743.2038,174.1248 739.7488,153.7498 C739.2548,150.8358 740.3048,147.3488 738.2168,145.0658" id="Fill-8" fill="#FEFEFE"></path>
                    <path d="M720.8379,316.0814 C721.5999,320.0114 723.5249,321.3484 727.3109,321.2504 C736.0729,321.0244 741.8099,315.7904 745.1249,304.5774 C749.7999,288.7694 749.8479,272.5164 750.0409,254.8194 C739.0279,267.0944 729.7169,278.7494 723.8179,292.7014 C720.6709,300.1464 719.2499,307.8894 720.8379,316.0814" id="Fill-10" fill="#FEFEFE"></path>
                    <path d="M177.8452,34.9291 C170.2962,53.7521 168.6532,73.4801 168.4492,93.4351 C173.5302,74.2431 178.4942,55.0331 177.8452,34.9291 M461.4462,166.5051 C460.0322,181.7791 461.9592,196.4401 469.4262,210.0771 C465.1982,222.0661 458.1502,232.2621 447.6022,239.1981 C436.6162,246.4211 421.9612,240.8531 415.2342,227.7071 C409.3042,216.1191 407.7162,203.4641 406.3572,190.7031 C404.7992,176.0651 406.0932,161.4011 405.3482,146.7621 C405.1262,142.3991 404.4092,138.2621 402.5342,133.8101 C397.3362,140.2561 395.3272,147.7571 393.2262,155.0961 C390.2092,165.6381 389.0322,176.5751 387.1322,187.3541 C386.0182,193.6701 380.9302,197.9051 374.1222,197.9161 C367.5902,197.9271 362.2822,193.4611 361.1232,187.2201 C359.6362,179.2161 359.4762,171.0411 357.5432,163.0691 C356.3642,158.2051 354.6012,153.5931 353.0362,148.8941 C352.6052,147.6001 351.7822,145.7801 350.1472,146.0371 C349.1092,146.2011 347.9332,147.5531 347.4222,148.6531 C344.5622,154.8091 342.5552,161.2691 341.0812,167.8931 C337.5632,183.6971 337.1782,199.8871 335.3272,215.8931 C334.6492,221.7581 331.8652,225.5751 326.8052,227.6151 C321.3132,229.8281 314.8712,227.6641 311.2352,222.8761 C304.7342,214.3151 300.4282,204.5911 296.6202,194.0761 C292.6362,202.0901 289.0722,209.7391 285.0802,217.1571 C280.9832,224.7711 276.5152,232.1961 269.9142,238.0291 C259.7812,246.9831 245.8072,245.9651 237.2642,235.3921 C229.2082,225.4201 226.7742,213.3501 225.1422,201.0511 C222.7882,183.3151 223.7682,165.4551 223.1962,147.6541 C223.0822,144.1281 222.6342,140.6781 221.5552,137.3391 C221.1842,136.1891 221.7182,134.1341 220.0012,134.1401 C219.0082,134.1441 217.8592,135.5511 217.0592,136.5491 C213.8152,140.5971 211.3782,145.1601 209.2572,149.8581 C199.7322,170.9451 194.2822,193.1781 191.0762,215.9991 C190.0622,223.2251 186.6082,228.0161 180.5332,229.6701 C174.5842,231.2891 169.2172,228.7791 164.8912,222.6271 C155.1992,208.8441 150.5332,193.1121 147.2662,176.8971 C141.0112,145.8461 140.0242,114.3941 141.3992,82.8921 C142.2852,62.5961 144.5432,42.3771 152.8152,23.4281 C157.3402,13.0621 163.3662,4.1171 175.2582,1.0881 C175.6202,0.9961 175.8482,0.3741 176.1382,0.0001 L184.1382,0.0001 C184.3392,0.9931 185.2302,1.2811 185.9672,1.4651 C199.5902,4.8791 203.7942,15.3731 205.0712,27.5921 C206.9302,45.3751 203.7102,62.7621 199.9492,80.0401 C196.3422,96.6141 191.9812,112.9931 186.9832,129.2021 C186.8202,129.7301 186.0932,130.3161 187.2422,130.9941 C189.4692,130.3591 189.8792,127.9521 190.9552,126.2711 C195.4912,119.1821 200.5952,112.5631 208.1132,108.5221 C224.4542,99.7361 241.8652,108.2391 247.1592,127.1791 C250.5162,139.1911 251.1692,151.4321 250.9952,163.7941 C250.8052,177.2811 250.4592,190.7751 253.1162,204.1241 C253.6652,206.8811 254.3792,209.5101 255.7882,212.5971 C260.5462,206.6121 263.5322,200.1371 266.5112,193.7701 C274.6582,176.3561 281.7342,158.4961 287.2852,140.0661 C289.3662,133.1561 295.6172,128.0541 301.6352,128.5021 C308.7852,129.0361 314.0832,134.8651 314.7492,142.9411 C315.0012,146.0041 315.2392,149.0691 315.5612,153.1161 C319.1242,149.0841 319.4552,144.8361 321.1802,141.2471 C325.5432,132.1741 330.4932,123.7931 340.3362,119.4301 C350.5272,114.9141 361.6952,116.9531 369.2912,125.1831 C373.2822,129.5071 373.3532,129.5471 376.2232,124.3721 C379.8882,117.7621 384.4952,111.8751 391.1912,108.3271 C404.8182,101.1071 420.8712,107.3631 427.0242,121.6361 C430.6422,130.0291 432.0862,138.8731 432.5062,147.8041 C433.0922,160.2761 433.0552,172.7861 432.9492,185.2781 C432.8922,192.0251 434.9012,198.4351 435.4162,205.0721 C435.5632,206.9691 436.4522,208.8201 438.1252,210.8321 C442.9132,204.8231 446.1382,198.2111 449.1772,191.5351 C452.7242,183.7421 456.0062,175.8271 459.3692,167.9511 C459.7862,166.9761 460.0922,166.0421 461.4462,166.5051" id="Fill-12" fill="#4D4C4D"></path>
                    <g id="Group-16">
                        <mask id="mask-4" fill="white">
                            <use xlink:href="#path-3"></use>
                        </mask>
                        <g id="Clip-15"></g>
                        <path d="M68.1387,-0.0001 C69.3227,1.7779 71.4697,1.6159 73.0377,1.7919 C99.1497,4.7169 115.4827,24.1029 120.9047,48.1229 C122.8137,56.5829 123.6227,65.2119 123.3207,73.9149 C123.0767,80.9439 118.1617,86.3749 111.4167,87.0039 C104.3677,87.6629 98.0307,83.2559 96.9047,76.2189 C95.5957,68.0389 95.9667,59.6609 93.6097,51.5619 C89.5067,37.4649 81.1947,29.7549 67.7007,28.1439 C53.5877,26.4579 41.8247,32.2869 34.9337,44.3799 C18.2007,73.7469 26.8317,106.1629 56.1717,124.0439 C66.1147,130.1039 76.3317,135.7449 86.0117,142.1949 C100.3127,151.7239 110.5987,164.3279 114.5677,181.5959 C119.4887,203.0039 112.7007,223.1299 96.3287,234.2839 C61.3137,258.1369 14.0327,238.0519 7.3487,196.4859 C6.1687,189.1399 10.6307,182.2929 17.7537,180.5209 C24.3007,178.8919 31.4797,183.1229 33.6927,190.1239 C35.1937,194.8699 36.1367,199.7769 38.7517,204.1469 C43.1797,211.5459 49.4457,215.8039 58.1807,216.2269 C64.3677,216.5279 70.4477,216.3769 76.3877,214.1539 C84.3187,211.1829 88.9467,205.2709 89.0077,196.8419 C89.0937,185.1509 84.6417,175.4959 75.4187,168.1449 C66.5227,161.0549 56.4757,155.8189 46.6807,150.1649 C29.8467,140.4479 14.9807,128.7329 6.5207,110.4869 C0.3177,97.1089 -0.6693,82.9859 0.3447,68.5949 C1.4837,52.4059 5.9727,37.2199 15.7147,24.0719 C24.6807,11.9699 36.7527,4.4339 51.7067,1.6719 C53.1977,1.3969 55.1497,1.8119 56.1387,-0.0001 L68.1387,-0.0001 Z" id="Fill-14" fill="#4D4C4D" mask="url(#mask-4)"></path>
                    </g>
                    <path d="M835.6943,34.5492 C828.2303,53.2282 826.5533,72.8472 826.4583,92.7232 C831.3713,73.6302 836.3823,54.5522 835.6943,34.5492 Z M841.1383,0.0002 C843.5183,2.2702 846.9633,1.8522 849.6803,3.5252 C859.4343,9.5262 862.2613,19.0252 863.0583,29.4672 C864.3663,46.5952 861.2433,63.3192 857.7623,79.9572 C851.6933,108.9732 842.9703,137.2322 832.5773,164.9572 C830.7693,169.7792 832.3073,173.8062 833.2023,178.0442 C835.7123,189.9382 838.7093,201.7182 845.4833,212.0892 C848.8683,217.2702 850.0113,217.4682 853.6133,212.3302 C864.2913,197.0982 875.3263,182.0762 883.2143,165.0772 C884.8823,161.4842 887.0253,158.1112 888.9503,154.6352 C888.7773,157.7592 888.9673,160.9562 888.3693,163.9982 C885.7823,177.1272 886.8293,189.9712 890.8273,202.6542 C887.6683,208.4532 884.5343,214.2662 881.3443,220.0482 C878.0343,226.0482 873.7423,231.3032 868.7673,235.9792 C856.9113,247.1242 840.2903,246.4652 828.8073,234.4932 C818.2243,223.4592 813.5773,209.4672 809.2353,195.3212 C808.8213,193.9702 809.1783,192.2022 807.1783,191.7842 C805.1673,180.1962 803.1303,168.6122 801.1563,157.0182 C800.4613,152.9352 801.4103,148.7172 800.2403,144.6642 C799.7793,134.1962 799.2003,123.7272 798.8813,113.2502 C798.1263,88.3942 799.0653,63.6632 805.1563,39.3872 C807.5543,29.8322 810.9133,20.6962 816.7533,12.5862 C821.1313,6.5042 826.6433,2.3552 834.1283,1.0762 C834.9293,0.9392 835.8163,1.0102 836.1383,0.0002 L841.1383,0.0002 Z" id="Fill-17" fill="#4D4C4D"></path>
                    <g id="Group-21" transform="translate(886.000000, 106.000000)">
                        <mask id="mask-6" fill="white">
                            <use xlink:href="#path-5"></use>
                        </mask>
                        <g id="Clip-20"></g>
                        <path d="M51.0127,60.1088 C58.6597,60.0728 63.3737,57.1478 65.5567,51.0848 C67.8357,44.7508 65.3437,33.1418 60.8437,29.6858 C59.8297,28.9068 58.5237,28.2688 57.2737,28.0798 C50.9947,27.1298 45.4127,28.5848 40.8237,33.2138 C35.7387,38.3428 33.1947,44.7958 31.0757,51.4998 C30.4747,53.4038 30.8307,54.6058 32.8277,55.3888 C38.7067,57.6928 44.4897,60.3098 51.0127,60.1088 M4.8267,96.6538 C0.8287,83.9708 -0.2173,71.1278 2.3687,57.9988 C2.9677,54.9568 2.7777,51.7588 2.9497,48.6348 C6.2157,41.9218 7.7587,34.5138 11.5667,27.9878 C20.3357,12.9568 32.1207,2.5908 50.2617,0.6628 C68.6347,-1.2892 84.2387,8.4028 90.5147,27.1168 C95.9327,43.2728 95.7027,59.1298 83.9227,72.7658 C70.9947,87.7298 54.3097,89.7958 36.0597,85.3808 C34.2067,84.9328 32.0357,83.0698 30.4787,84.5758 C28.8907,86.1108 30.6287,88.3458 31.1877,90.1508 C37.9717,112.0858 54.6687,115.3278 73.0427,106.2188 C86.4347,99.5808 94.4427,87.5228 101.1307,74.6628 C103.9647,69.2128 106.3267,63.5098 108.7297,57.8478 C111.7227,50.7948 115.5167,47.8378 122.0407,47.8298 C128.4457,47.8208 132.2537,50.7748 135.1927,57.9738 C135.3577,58.3778 135.8167,58.6608 136.1387,59.0008 L136.1387,64.0008 C131.5347,72.9628 128.0907,82.4768 123.0497,91.2368 C112.7327,109.1678 100.0077,124.6328 80.3747,132.9888 C57.2587,142.8268 33.5767,138.5248 18.0397,121.4908 C11.5717,114.3988 7.1377,106.0468 4.8267,96.6538" id="Fill-19" fill="#4D4C4D" mask="url(#mask-6)"></path>
                    </g>
                    <path d="M662.0488,197.9896 C661.9288,197.5506 661.8088,197.1096 661.6788,196.6796 C661.6488,196.5696 661.4388,196.5196 661.2188,196.3896 C659.6688,196.9296 659.9788,198.5506 659.6388,199.6706 C656.4978,209.8006 651.7688,218.3496 645.2378,224.9606 L622.6488,200.6896 C624.4388,198.5696 625.9688,196.0196 627.1688,193.0406 C629.3188,187.6896 629.7088,182.0596 630.1788,175.6496 C629.9188,173.4096 629.6488,170.4296 629.1888,167.4796 C627.7288,158.1796 623.5988,150.5806 614.3488,147.2106 C605.0588,143.8396 597.4288,147.9296 590.7378,154.0196 C584.5278,159.6706 580.1388,166.8196 575.4188,173.6596 C574.5688,174.8996 574.2288,176.0996 574.7688,177.4496 C572.4688,174.0996 560.1978,156.2506 552.6288,147.5996 C553.6688,147.8306 554.5378,147.0006 555.7378,145.2906 C563.0378,134.8496 571.3888,125.4596 583.0988,119.6096 C613.3188,104.4896 649.2988,119.9796 659.0378,152.3706 C659.9878,155.5506 660.7378,158.7906 661.6388,162.2106 C661.8088,161.6496 661.9788,161.0806 662.1488,160.5196 C662.2588,172.1706 663.5488,185.6096 662.0488,197.9896" id="Fill-22" fill="#E02A52"></path>
                    <path d="M645.2383,224.9603 C638.4193,231.8593 629.6293,236.6403 618.5893,238.9093 C597.0893,243.3303 579.2783,235.9803 564.9483,219.7703 C563.2483,217.8503 561.5983,215.8593 560.0183,213.8303 L560.0093,213.8103 C558.4383,211.7603 556.9283,209.6593 555.5183,207.5203 C554.8793,206.5603 554.3483,205.9493 553.8393,205.6593 L533.5683,175.6093 C533.5493,175.1993 533.3793,174.7503 532.9783,174.2603 C527.5283,167.4893 522.0183,160.7503 513.6583,157.3803 C505.5683,154.1093 497.8283,157.5903 494.5183,165.7103 C493.2283,168.8703 492.9283,172.1493 493.0483,176.3903 C493.0483,176.5103 492.9983,177.5103 493.0583,178.5003 C493.2083,181.0293 493.5983,183.4493 494.3583,185.6493 L468.9983,209.2703 C461.8883,195.8703 460.0583,181.4703 461.4483,166.5103 C464.0983,152.9403 469.2183,140.6493 480.7483,132.2103 C497.1183,120.2503 514.0983,122.1603 531.1083,130.8503 C538.4383,134.6003 544.8793,139.6203 550.2993,145.8003 C551.2283,146.8703 551.9593,147.4493 552.6293,147.6003 C560.1983,156.2503 572.4683,174.1003 574.7683,177.4493 C574.2283,176.1003 574.5683,174.8993 575.4193,173.6593 C580.1383,166.8193 584.5283,159.6703 590.7383,154.0203 C597.4283,147.9303 605.0583,143.8393 614.3483,147.2103 C623.5983,150.5803 627.7283,158.1803 629.1883,167.4803 C629.6483,170.4303 629.9193,173.4093 630.1783,175.6493 C629.7093,182.0603 629.3183,187.6903 627.1693,193.0403 C625.9683,196.0203 624.4383,198.5693 622.6483,200.6903 L645.2383,224.9603 Z" id="Fill-24" fill="#00B8B2"></path>
                    <path d="M553.8389,205.6596 C552.7879,205.0296 551.8679,205.7296 550.4689,207.3196 C541.5889,217.3996 530.8889,224.7696 517.7779,228.3006 C499.1689,233.3006 484.0789,227.6996 471.9879,213.0906 C471.1389,212.0806 470.2779,211.0806 469.4289,210.0806 C469.3889,210.0006 469.3489,209.9306 469.3089,209.8496 C469.2089,209.6596 469.0989,209.4606 468.9989,209.2696 L494.3589,185.6496 C493.5989,183.4496 493.2089,181.0296 493.0589,178.5006 C492.9989,177.5106 493.0479,176.5106 493.0479,176.3896 C492.9289,172.1496 493.2289,168.8706 494.5189,165.7106 C497.8289,157.5906 505.5679,154.1096 513.6579,157.3806 C522.0189,160.7506 527.5279,167.4896 532.9789,174.2606 C533.3789,174.7506 533.5489,175.1996 533.5679,175.6096 L553.8389,205.6596 Z" id="Fill-26" fill="#FFCB05"></path>
                    <path d="M533.5684,175.6098 C533.6294,176.5808 532.8584,177.3708 532.1784,178.1498 C528.4784,182.4398 524.8084,186.7298 520.4284,190.3808 C515.1584,194.7508 509.4584,197.8598 502.6184,194.8098 C498.2284,192.8498 495.7084,189.5998 494.3584,185.6498 C493.5984,183.4498 493.2084,181.0298 493.0584,178.5008 C492.9984,177.5098 493.0484,176.5098 493.0484,176.3898 C492.9284,172.1498 493.2284,168.8708 494.5184,165.7108 C497.8284,157.5898 505.5684,154.1098 513.6584,157.3808 C522.0184,160.7508 527.5284,167.4898 532.9784,174.2598 C533.3794,174.7508 533.5484,175.1998 533.5684,175.6098" id="Fill-28" fill="#4D4C4D"></path>
                    <path d="M630.1787,175.6498 C629.7087,182.0598 629.3187,187.6898 627.1687,193.0408 C625.9687,196.0198 624.4387,198.5698 622.6487,200.6898 C614.4587,210.4208 601.0187,210.8708 590.7477,200.2298 C584.4687,193.7198 580.0377,185.8308 575.1887,178.2598 C575.0187,177.9898 574.8787,177.7198 574.7787,177.4608 C574.7687,177.4608 574.7687,177.4498 574.7687,177.4498 C574.2287,176.0998 574.5687,174.8998 575.4187,173.6598 C580.1387,166.8198 584.5287,159.6708 590.7387,154.0198 C597.4287,147.9298 605.0587,143.8398 614.3487,147.2108 C623.5987,150.5808 627.7287,158.1798 629.1887,167.4798 C629.6487,170.4298 629.9187,173.4098 630.1787,175.6498" id="Fill-30" fill="#FEFEFE"></path>
                    <path d="M533.5684,175.6098 C533.6294,176.5808 532.8584,177.3708 532.1784,178.1498 C528.4784,182.4398 524.8084,186.7298 520.4284,190.3808 C515.1584,194.7508 509.4584,197.8598 502.6184,194.8098 C498.2284,192.8498 495.7084,189.5998 494.3584,185.6498 C493.5984,183.4498 493.2084,181.0298 493.0584,178.5008 C492.9984,177.5098 493.0484,176.5098 493.0484,176.3898 C492.9284,172.1498 493.2284,168.8708 494.5184,165.7108 C497.8284,157.5898 505.5684,154.1098 513.6584,157.3808 C522.0184,160.7508 527.5284,167.4898 532.9784,174.2598 C533.3794,174.7508 533.5484,175.1998 533.5684,175.6098" id="Fill-32" fill="#FEFEFE"></path>
                    <path d="M630.1787,175.6498 C629.7087,182.0598 629.3187,187.6898 627.1687,193.0408 C625.9687,196.0198 624.4387,198.5698 622.6487,200.6898 C614.4587,210.4208 601.0187,210.8708 590.7477,200.2298 C584.4687,193.7198 580.0377,185.8308 575.1887,178.2598 C575.0187,177.9898 574.8787,177.7198 574.7787,177.4608 C574.7687,177.4608 574.7687,177.4498 574.7687,177.4498 C574.2287,176.0998 574.5687,174.8998 575.4187,173.6598 C580.1387,166.8198 584.5287,159.6708 590.7387,154.0198 C597.4287,147.9298 605.0587,143.8398 614.3487,147.2108 C623.5987,150.5808 627.7287,158.1798 629.1887,167.4798 C629.6487,170.4298 629.9187,173.4098 630.1787,175.6498" id="Fill-34" fill="#FEFEFE"></path>
                </g>
            </g>
        </g>
    </g>
</svg>